REM DIRINDEX 1\2,1\3,1\4,1\5
REM DIRNAME folder01,folder02,folder03,folder04,folder05
TITLE ""
FILE "P1Q_t_0080-0089.mp3" MP3
  TRACK 01 AUDIO
    TITLE "3:cjc005_1140"
    INDEX 01 00:00:00
  TRACK 02 AUDIO
    TITLE "0:"
    INDEX 01 00:01:15
  TRACK 03 AUDIO
    TITLE "4:cjc005_1141"
    INDEX 01 00:01:42
  TRACK 04 AUDIO
    TITLE "0:"
    INDEX 01 00:02:67
  TRACK 05 AUDIO
    TITLE "5:cjc005_1142"
    INDEX 01 00:03:14
  TRACK 06 AUDIO
    TITLE "0:"
    INDEX 01 00:06:55
  TRACK 07 AUDIO
    TITLE "3:cjc005_1143"
    INDEX 01 00:07:35
  TRACK 08 AUDIO
    TITLE "0:"
    INDEX 01 00:08:52
  TRACK 09 AUDIO
    TITLE "4:cjc005_1144"
    INDEX 01 00:09:04
  TRACK 10 AUDIO
    TITLE "0:"
    INDEX 01 00:10:43
  TRACK 11 AUDIO
    TITLE "5:cjc005_1145"
    INDEX 01 00:10:68
  TRACK 12 AUDIO
    TITLE "0:"
    INDEX 01 00:15:01
  TRACK 13 AUDIO
    TITLE "3:cjc005_1146"
    INDEX 01 00:15:52
  TRACK 14 AUDIO
    TITLE "0:"
    INDEX 01 00:17:06
  TRACK 15 AUDIO
    TITLE "4:cjc005_1147"
    INDEX 01 00:17:35
  TRACK 16 AUDIO
    TITLE "0:"
    INDEX 01 00:19:07
  TRACK 17 AUDIO
    TITLE "5:cjc005_1148"
    INDEX 01 00:19:30
  TRACK 18 AUDIO
    TITLE "0:"
    INDEX 01 00:24:00
  TRACK 19 AUDIO
    TITLE "3:cjc005_1149"
    INDEX 01 00:24:59
  TRACK 20 AUDIO
    TITLE "0:"
    INDEX 01 00:26:09
  TRACK 21 AUDIO
    TITLE "4:cjc005_1150"
    INDEX 01 00:26:40
  TRACK 22 AUDIO
    TITLE "0:"
    INDEX 01 00:27:73
  TRACK 23 AUDIO
    TITLE "5:cjc005_1151"
    INDEX 01 00:28:17
  TRACK 24 AUDIO
    TITLE "0:"
    INDEX 01 00:31:55
  TRACK 25 AUDIO
    TITLE "3:cjc005_1152"
    INDEX 01 00:32:33
  TRACK 26 AUDIO
    TITLE "0:"
    INDEX 01 00:33:52
  TRACK 27 AUDIO
    TITLE "4:cjc005_1153"
    INDEX 01 00:34:10
  TRACK 28 AUDIO
    TITLE "0:"
    INDEX 01 00:35:37
  TRACK 29 AUDIO
    TITLE "5:cjc005_1154"
    INDEX 01 00:35:57
  TRACK 30 AUDIO
    TITLE "0:"
    INDEX 01 00:39:68
  TRACK 31 AUDIO
    TITLE "3:cjc005_1155"
    INDEX 01 00:40:42
  TRACK 32 AUDIO
    TITLE "0:"
    INDEX 01 00:41:61
  TRACK 33 AUDIO
    TITLE "4:cjc005_1156"
    INDEX 01 00:42:10
  TRACK 34 AUDIO
    TITLE "0:"
    INDEX 01 00:43:56
  TRACK 35 AUDIO
    TITLE "5:cjc005_1157"
    INDEX 01 00:44:01
  TRACK 36 AUDIO
    TITLE "0:"
    INDEX 01 00:47:44
  TRACK 37 AUDIO
    TITLE "3:cjc005_1158"
    INDEX 01 00:48:24
  TRACK 38 AUDIO
    TITLE "0:"
    INDEX 01 00:49:49
  TRACK 39 AUDIO
    TITLE "4:cjc005_1159"
    INDEX 01 00:50:01
  TRACK 40 AUDIO
    TITLE "0:"
    INDEX 01 00:51:46
  TRACK 41 AUDIO
    TITLE "5:cjc005_1160"
    INDEX 01 00:51:71
  TRACK 42 AUDIO
    TITLE "0:"
    INDEX 01 00:55:73
  TRACK 43 AUDIO
    TITLE "3:cjc005_1161"
    INDEX 01 00:56:53
  TRACK 44 AUDIO
    TITLE "0:"
    INDEX 01 00:58:03
  TRACK 45 AUDIO
    TITLE "4:cjc005_1162"
    INDEX 01 00:58:26
  TRACK 46 AUDIO
    TITLE "0:"
    INDEX 01 00:59:63
  TRACK 47 AUDIO
    TITLE "5:cjc005_1163"
    INDEX 01 01:00:13
  TRACK 48 AUDIO
    TITLE "0:"
    INDEX 01 01:04:21
  TRACK 49 AUDIO
    TITLE "3:cjc005_1164"
    INDEX 01 01:04:72
  TRACK 50 AUDIO
    TITLE "0:"
    INDEX 01 01:06:04
  TRACK 51 AUDIO
    TITLE "4:cjc005_1165"
    INDEX 01 01:06:36
  TRACK 52 AUDIO
    TITLE "0:"
    INDEX 01 01:07:39
  TRACK 53 AUDIO
    TITLE "5:cjc005_1166"
    INDEX 01 01:07:63
  TRACK 54 AUDIO
    TITLE "0:"
    INDEX 01 01:10:61
  TRACK 55 AUDIO
    TITLE "3:cjc005_1167"
    INDEX 01 01:11:37
  TRACK 56 AUDIO
    TITLE "0:"
    INDEX 01 01:12:38
  TRACK 57 AUDIO
    TITLE "4:cjc005_1168"
    INDEX 01 01:12:64
  TRACK 58 AUDIO
    TITLE "0:"
    INDEX 01 01:14:17
  TRACK 59 AUDIO
    TITLE "5:cjc005_1169"
    INDEX 01 01:14:39
  TRACK 60 AUDIO
    TITLE "0:"
    INDEX 01 01:17:67
